<svg xmlns="http://www.w3.org/2000/svg" xmlns:xlink="http://www.w3.org/1999/xlink" width="234.971" height="44.756" viewBox="0 0 234.971 44.756">
  <defs>
    <clipPath id="clip-path">
      <rect id="Rectángulo_37" data-name="Rectángulo 37" width="234.971" height="44.756" transform="translate(0 0)" fill="none"/>
    </clipPath>
  </defs>
  <g id="Grupo_27" data-name="Grupo 27" transform="translate(0 0)">
    <g id="Grupo_26" data-name="Grupo 26" clip-path="url(#clip-path)">
      <path id="Trazado_133" data-name="Trazado 133" d="M107.5,18.868a3.274,3.274,0,0,1,.737.076.832.832,0,0,1,.511.341,1.8,1.8,0,0,1,.226,1.042v1.308c0,.28.008.595.019.947a1.748,1.748,0,0,1-.132.834.685.685,0,0,1-.435.341,2.524,2.524,0,0,1-.642.076,7.428,7.428,0,0,1-.756-.038,2.38,2.38,0,0,0-.738.038,2.618,2.618,0,0,1-.529.095,1.935,1.935,0,0,0-.491.1,5.6,5.6,0,0,0-1.21.549,3.243,3.243,0,0,0-.945.815c-.125.2-.257.413-.4.626s-.272.435-.4.663c-.075.2-.144.413-.208.625s-.121.425-.17.626a2.054,2.054,0,0,0-.075.549,2.041,2.041,0,0,1-.076.55.757.757,0,0,0-.019.284.543.543,0,0,1-.019.246v.607a1.509,1.509,0,0,0-.038.587,5.037,5.037,0,0,1,.038.626v5.655c0,.329-.011.633-.038.909a1.382,1.382,0,0,1-.226.683.46.46,0,0,1-.246.17,3.375,3.375,0,0,1-.36.1h-.188a2.06,2.06,0,0,1-.416.038H98.231a2.713,2.713,0,0,0-.473-.038h-.51c-.125-.049-.253-.1-.378-.133a.4.4,0,0,1-.265-.246.936.936,0,0,1-.17-.55c-.011-.239-.019-.485-.019-.739V20.388a1.037,1.037,0,0,1,.151-.588.825.825,0,0,1,.568-.379,4.826,4.826,0,0,1,.907-.075h1.931a4.868,4.868,0,0,1,.794.056.747.747,0,0,1,.529.36,1.155,1.155,0,0,1,.133.531c.011.228.03.451.057.663a2.621,2.621,0,0,0,.132.588.354.354,0,0,0,.359.265.224.224,0,0,1,.151-.076.222.222,0,0,0,.151-.075,2.2,2.2,0,0,0,.4-.436,1.765,1.765,0,0,1,.435-.436,1.654,1.654,0,0,0,.265-.247,1.645,1.645,0,0,1,.264-.246c.227-.152.461-.3.7-.455a7.841,7.841,0,0,1,.737-.417,7.856,7.856,0,0,1,.775-.265c.264-.076.537-.152.812-.227a1.332,1.332,0,0,1,.435-.019c.215.011.348-.008.4-.057Z" fill="#fff"/>
      <path id="Trazado_134" data-name="Trazado 134" d="M129.659,36.78v1.043a1.324,1.324,0,0,1-.226.814.926.926,0,0,1-.492.247,3.729,3.729,0,0,1-.68.057h-2.083c-.254,0-.488-.008-.7-.019a.863.863,0,0,1-.51-.171.677.677,0,0,1-.3-.493,2.746,2.746,0,0,0-.152-.606l-.132-.133-.132-.132a.827.827,0,0,0-.605.189l-.378.379c-.177.125-.34.235-.491.322a5.853,5.853,0,0,0-.492.323c-.1.049-.207.1-.321.151s-.235.1-.359.152q-.534.188-1.134.341a.967.967,0,0,1-.34.076,1.165,1.165,0,0,0-.3.038,2.611,2.611,0,0,0-.321.018,2.418,2.418,0,0,1-.321.019h-.341a2.048,2.048,0,0,1-.68.057,2.149,2.149,0,0,1-.643-.094,1.336,1.336,0,0,0-.473-.057,1.112,1.112,0,0,1-.434-.057c-.3-.1-.6-.2-.888-.284a6.865,6.865,0,0,1-.851-.323,6.523,6.523,0,0,1-2.366-1.766,10.378,10.378,0,0,1-1.649-2.524,6.17,6.17,0,0,1-.3-.815c-.076-.265-.163-.538-.265-.815a1.148,1.148,0,0,1-.037-.284.933.933,0,0,0-.076-.322c-.049-.2-.094-.425-.132-.664s-.084-.485-.133-.739a.612.612,0,0,1-.019-.265.6.6,0,0,0-.018-.265v-.36a1.772,1.772,0,0,0-.038-.36,2.119,2.119,0,0,1-.038-.436,1.618,1.618,0,0,1,.038-.4,1.779,1.779,0,0,0,.038-.36V27.9a1.172,1.172,0,0,0,.018-.361.781.781,0,0,1,.057-.36c.049-.276.095-.542.133-.8a5.294,5.294,0,0,1,.17-.758c.1-.3.188-.595.264-.871a5.665,5.665,0,0,1,.3-.834,11.3,11.3,0,0,1,1.323-2.164.823.823,0,0,1,.208-.209.837.837,0,0,0,.208-.208,3.917,3.917,0,0,1,.642-.645.832.832,0,0,0,.265-.208.834.834,0,0,1,.264-.209,8.861,8.861,0,0,1,2.2-1.061,4.4,4.4,0,0,1,.548-.114,5.793,5.793,0,0,0,.586-.113,2.991,2.991,0,0,1,.68-.095c.276-.011.556-.019.832-.019a8.038,8.038,0,0,1,.813.038,3.877,3.877,0,0,1,.661.114c.378.125.745.242,1.1.341a4.4,4.4,0,0,1,.983.417c.178.125.34.246.492.36s.314.235.491.36c.1.076.246.178.435.3a.447.447,0,0,0,.548,0,.269.269,0,0,0,.151-.265,1.045,1.045,0,0,1,.076-.379v-.379a.818.818,0,0,0,.037-.266V14.058c0-.277-.007-.588-.018-.929a1.264,1.264,0,0,1,.17-.777.737.737,0,0,1,.567-.379.217.217,0,0,1,.151-.019.207.207,0,0,0,.151-.019h2.688a8.2,8.2,0,0,1,.832.038.741.741,0,0,1,.566.3,1.463,1.463,0,0,1,.19.777V36.792ZM124.2,29.34a.928.928,0,0,0,.019-.322,3.076,3.076,0,0,1-.019-.322,7.4,7.4,0,0,0-.038-.758,5.255,5.255,0,0,0-.113-.683c-.05-.276-.1-.53-.133-.758a2.324,2.324,0,0,0-.208-.644,5.011,5.011,0,0,0-1.534-2.164,4.572,4.572,0,0,0-2.9-.8,3.278,3.278,0,0,0-.6.076c-.2.049-.386.094-.548.132a2.125,2.125,0,0,0-.473.171,3.4,3.4,0,0,0-1.591,1.289,7.836,7.836,0,0,0-.907,1.974,4.224,4.224,0,0,0-.152.758,4.864,4.864,0,0,1-.151.8v.531a3.446,3.446,0,0,0-.037.928,4.6,4.6,0,0,0,.113.853,1.192,1.192,0,0,0,.019.209,1.049,1.049,0,0,1,.019.17c.049.2.094.394.132.569s.083.367.132.568a5.132,5.132,0,0,0,2.2,2.923,3.83,3.83,0,0,0,1.362.53,1.921,1.921,0,0,0,.453.038,1.466,1.466,0,0,0,.359.057,1.28,1.28,0,0,0,.4-.019,5.9,5.9,0,0,1,.6-.114,2.68,2.68,0,0,0,.605-.151,4.259,4.259,0,0,0,1.512-1.062,5.884,5.884,0,0,0,.983-1.633,3.37,3.37,0,0,0,.226-.7c.05-.239.1-.5.152-.777a1.2,1.2,0,0,0,.019-.36.765.765,0,0,1,.056-.36.79.79,0,0,0,.038-.266V29.34Z" fill="#fff"/>
      <path id="Trazado_135" data-name="Trazado 135" d="M151.426,28.961a1.6,1.6,0,0,1,0,.682.706.706,0,0,1-.265.493,1.138,1.138,0,0,1-.548.208,6.8,6.8,0,0,1-.794.076c-.291.012-.582.012-.869,0s-.548-.019-.775-.019h-9.746a1.188,1.188,0,0,0-.434.076,1,1,0,0,0-.53.588.729.729,0,0,0-.037.4,1.946,1.946,0,0,1,.094.435,1.85,1.85,0,0,0,.1.436,5.291,5.291,0,0,0,.737,1.5,4.059,4.059,0,0,0,1.191,1.043,1.746,1.746,0,0,0,.623.246,4.708,4.708,0,0,1,.662.17,5.211,5.211,0,0,0,.831.114,3.374,3.374,0,0,0,.907-.038h.341c.253-.049.484-.106.7-.17s.423-.133.624-.209a9.125,9.125,0,0,0,.851-.493,2.68,2.68,0,0,0,.7-.606,6.414,6.414,0,0,1,.4-.512,1.249,1.249,0,0,1,.51-.36,2.031,2.031,0,0,1,.964-.17c.389.011.749.019,1.078.019.151,0,.309-.008.472-.019a.976.976,0,0,1,.435.057h.378a1.352,1.352,0,0,1,.529.189.368.368,0,0,1,.17.341,1.052,1.052,0,0,1-.057.455,6.325,6.325,0,0,1-.416.948,7.324,7.324,0,0,1-.529.833,7.675,7.675,0,0,1-1.894,2.013,9.868,9.868,0,0,1-2.65,1.289,3.319,3.319,0,0,1-.831.189,5.872,5.872,0,0,0-.87.152.924.924,0,0,1-.321.019.878.878,0,0,0-.321.019h-.416a1,1,0,0,1-.435.057,3.4,3.4,0,0,1-.435-.057,1.728,1.728,0,0,0-.529,0,1.118,1.118,0,0,1-.491-.038,1.136,1.136,0,0,0-.416-.076,1.116,1.116,0,0,1-.416-.076c-.28-.049-.556-.106-.832-.17a2.933,2.933,0,0,1-.756-.285l-.774-.284a3.417,3.417,0,0,1-.662-.322,10.79,10.79,0,0,1-2.159-1.766A8.572,8.572,0,0,1,132.952,34a5.488,5.488,0,0,1-.3-.853,6.787,6.787,0,0,0-.3-.891,1.107,1.107,0,0,1-.038-.284,1.106,1.106,0,0,0-.038-.284,4.058,4.058,0,0,1-.189-.985c-.026-.353-.049-.709-.075-1.062,0-.125-.008-.265-.019-.417a1.451,1.451,0,0,1,.019-.417v-.454l.113-.91c.1-.428.189-.849.265-1.251a5.368,5.368,0,0,1,.34-1.137,9.913,9.913,0,0,1,5.527-5.579,4.816,4.816,0,0,1,1.077-.322c.367-.065.749-.144,1.153-.247a4.4,4.4,0,0,1,.567-.038,4.4,4.4,0,0,0,.567-.037,9.656,9.656,0,0,1,3.311.435,10.257,10.257,0,0,1,2.48,1.232,7.969,7.969,0,0,1,.681.512,5.63,5.63,0,0,1,.6.587.89.89,0,0,0,.3.3q.3.42.567.852c.178.292.366.588.567.891a5.255,5.255,0,0,1,.322.7c.086.243.181.5.283.777a7.242,7.242,0,0,1,.3,1.024c.075.356.162.708.264,1.061a2.363,2.363,0,0,1,.057.663,2.274,2.274,0,0,0,.057.664v.416Zm-5.678-2.24a.948.948,0,0,0,.056-.929c-.139-.367-.245-.64-.321-.814a3.954,3.954,0,0,0-1.4-1.573,4.715,4.715,0,0,0-2.423-.588.314.314,0,0,1-.264.038.441.441,0,0,0-.265,0,1.45,1.45,0,0,1-.415.1,1.378,1.378,0,0,0-.416.095,4.039,4.039,0,0,0-2.462,2.088c-.049.1-.109.235-.169.4a2.375,2.375,0,0,0-.133.493,1.171,1.171,0,0,0,.019.473.684.684,0,0,0,.246.379,1.572,1.572,0,0,0,.832.19h5.223c.352,0,.727-.008,1.116-.019a.883.883,0,0,0,.775-.322Z" fill="#fff"/>
      <path id="Trazado_136" data-name="Trazado 136" d="M164.626,18.868a3.268,3.268,0,0,1,.737.076.827.827,0,0,1,.511.341,1.8,1.8,0,0,1,.226,1.042v1.308c0,.28.008.595.019.947a1.736,1.736,0,0,1-.132.834.685.685,0,0,1-.435.341,2.518,2.518,0,0,1-.642.076,7.428,7.428,0,0,1-.756-.038,2.38,2.38,0,0,0-.738.038,2.618,2.618,0,0,1-.529.095,1.935,1.935,0,0,0-.491.1,5.6,5.6,0,0,0-1.21.549,3.243,3.243,0,0,0-.945.815c-.124.2-.257.413-.4.626s-.272.435-.4.663c-.075.2-.143.413-.208.625s-.121.425-.17.626a2.055,2.055,0,0,0-.075.549,2.041,2.041,0,0,1-.076.55.757.757,0,0,0-.019.284.53.53,0,0,1-.019.246v.607a1.491,1.491,0,0,0-.037.587,5.231,5.231,0,0,1,.037.626v5.655c0,.329-.011.633-.037.909a1.393,1.393,0,0,1-.227.683.456.456,0,0,1-.246.17,3.419,3.419,0,0,1-.359.1h-.189a2.06,2.06,0,0,1-.416.038h-2.045a2.7,2.7,0,0,0-.473-.038h-.51c-.125-.049-.253-.1-.378-.133a.4.4,0,0,1-.265-.246.929.929,0,0,1-.169-.55c-.012-.239-.02-.485-.02-.739V20.388a1.037,1.037,0,0,1,.151-.588.825.825,0,0,1,.568-.379,4.826,4.826,0,0,1,.907-.075H157.1a4.863,4.863,0,0,1,.793.056.747.747,0,0,1,.529.36,1.143,1.143,0,0,1,.133.531c.011.228.03.451.057.663a2.621,2.621,0,0,0,.132.588.354.354,0,0,0,.359.265.224.224,0,0,1,.152-.076.224.224,0,0,0,.151-.075,2.192,2.192,0,0,0,.4-.436,1.782,1.782,0,0,1,.435-.436,1.654,1.654,0,0,0,.265-.247,1.611,1.611,0,0,1,.265-.246c.226-.152.46-.3.7-.455a7.967,7.967,0,0,1,.737-.417,7.857,7.857,0,0,1,.775-.265c.264-.076.537-.152.812-.227a1.335,1.335,0,0,1,.435-.019c.215.011.348-.008.4-.057Z" fill="#fff"/>
      <path id="Trazado_137" data-name="Trazado 137" d="M170.606,11.882h17.449c.3,0,.593.011.869.038a.784.784,0,0,1,.605.3.6.6,0,0,1,.095.265.907.907,0,0,0,.094.3v.417a2.715,2.715,0,0,1,.019.568c-.011.2-.019.394-.019.569,0,.2.008.4.019.587a2.564,2.564,0,0,1-.019.55,3.074,3.074,0,0,0-.038.568.911.911,0,0,1-.378.607.989.989,0,0,1-.566.151H178.555c-.2,0-.434-.007-.7-.019s-.529-.011-.794,0a6.168,6.168,0,0,0-.737.076,1.137,1.137,0,0,0-.491.171.785.785,0,0,0-.321.549,5.28,5.28,0,0,0-.057.815v3.264a4.877,4.877,0,0,0,.151.511.6.6,0,0,0,.264.322,1.026,1.026,0,0,0,.53.171c.2.011.416.019.642.019H185.6c.178,0,.4-.008.662-.019s.521-.011.774,0,.484.03.7.057a1,1,0,0,1,.472.151.669.669,0,0,1,.265.455,4.369,4.369,0,0,1,.094.739c.012.266.012.539,0,.815s-.019.519-.019.72v.531a1.248,1.248,0,0,1-.075.455.886.886,0,0,1-.3.492,1.294,1.294,0,0,1-.51.152,5.823,5.823,0,0,1-.718.038c-.265,0-.529-.008-.794-.019s-.488-.019-.662-.019H178.1c-.3,0-.593-.007-.869-.019a3.953,3.953,0,0,0-.776.038,1.418,1.418,0,0,0-.6.228.975.975,0,0,0-.36.511,1.956,1.956,0,0,0-.037.4v3.965a5.243,5.243,0,0,0,.057.815.779.779,0,0,0,.321.549.454.454,0,0,0,.283.133,1.322,1.322,0,0,1,.359.1h.379a1.51,1.51,0,0,0,.415.019c.151-.012.292-.019.416-.019h11.3a1.125,1.125,0,0,1,.511.113.688.688,0,0,1,.415.417,1.559,1.559,0,0,1,.1.455c.011.178.019.368.019.569V37.25c0,.3-.012.587-.038.853a.738.738,0,0,1-.34.587.893.893,0,0,1-.586.19H171.252a6.577,6.577,0,0,1-.926-.057.782.782,0,0,1-.586-.36,1.037,1.037,0,0,1-.151-.588V12.811a.821.821,0,0,1,.151-.531.881.881,0,0,1,.567-.379.212.212,0,0,1,.151-.019.212.212,0,0,0,.151-.019Z" fill="#fff"/>
      <path id="Trazado_138" data-name="Trazado 138" d="M217.416,37.121a2.754,2.754,0,0,0,.133.379,2.938,2.938,0,0,1,.151.474,1.188,1.188,0,0,1,.019.473.458.458,0,0,1-.265.342,1.79,1.79,0,0,1-1,.151c-.469-.026-.85-.038-1.152-.038h-1.781c-.2,0-.386.008-.548.019a1.213,1.213,0,0,1-.473-.057.928.928,0,0,1-.6-.454,2.394,2.394,0,0,1-.283-.645,4.906,4.906,0,0,0-.246-.682c-.125-.406-.261-.811-.4-1.213s-.283-.8-.434-1.175c-.076-.227-.144-.436-.209-.625a4,4,0,0,0-.208-.512,1.127,1.127,0,0,0-.339-.4,1.48,1.48,0,0,0-.6-.246c-.125,0-.246-.008-.359-.019a3.449,3.449,0,0,0-.36-.019h-5.98c-.431,0-.888-.008-1.38-.019a1.853,1.853,0,0,0-1.152.284,1.144,1.144,0,0,0-.417.607,8.012,8.012,0,0,1-.264.758,9.021,9.021,0,0,0-.51,1.345c-.14.47-.295.929-.473,1.384-.1.254-.2.519-.283.8a1.247,1.247,0,0,1-.435.644,1.152,1.152,0,0,1-.548.208,5.136,5.136,0,0,1-.794.057c-.288,0-.586-.007-.888-.019s-.567-.019-.795-.019c-.328,0-.725.008-1.19.019a1.887,1.887,0,0,1-1-.17.418.418,0,0,1-.208-.341,1.58,1.58,0,0,1,.038-.474c.038-.163.084-.322.133-.474a2.982,2.982,0,0,1,.151-.379c.253-.58.484-1.175.7-1.785s.435-1.2.662-1.785a2.823,2.823,0,0,0,.226-.607,2.82,2.82,0,0,1,.227-.606c.2-.531.4-1.077.6-1.634s.4-1.1.6-1.633q.3-.758.567-1.5t.567-1.5c.578-1.391,1.115-2.8,1.607-4.211s1.028-2.82,1.61-4.211a2.937,2.937,0,0,0,.113-.341,2.9,2.9,0,0,1,.114-.341c.2-.531.4-1.077.6-1.634s.416-1.1.643-1.634a6.794,6.794,0,0,0,.321-.852,1.368,1.368,0,0,1,.473-.7,1.785,1.785,0,0,1,.491-.189.214.214,0,0,1,.152-.019.217.217,0,0,0,.151-.019h3.33c.276,0,.559-.008.851-.019a1.256,1.256,0,0,1,1.247.834,9.454,9.454,0,0,0,.322.891c.177.432.339.852.491,1.269s.314.842.491,1.27c.049.152.1.3.152.455s.1.3.151.455c.2.508.389,1,.566,1.5s.367.993.568,1.5c.5,1.266.979,2.544,1.417,3.832s.926,2.57,1.459,3.832a.963.963,0,0,1,.1.285.9.9,0,0,0,.1.284c.151.405.3.811.453,1.213s.3.811.454,1.213a3.067,3.067,0,0,1,.227.587,5.6,5.6,0,0,0,.189.587c.329.812.631,1.619.907,2.43s.578,1.607.907,2.392a.392.392,0,0,1,.076.208.392.392,0,0,0,.075.209Zm-9.8-8.691a.6.6,0,0,0,.454-.644,2.682,2.682,0,0,0-.227-.872.668.668,0,0,1-.076-.284.67.67,0,0,0-.075-.285q-.494-1.29-.908-2.619c-.279-.887-.593-1.77-.944-2.657a4.19,4.19,0,0,1-.151-.473,3.162,3.162,0,0,0-.19-.531,2.072,2.072,0,0,0-.264-.436.471.471,0,0,0-.379-.189.626.626,0,0,1-.151.113.681.681,0,0,0-.151.114,2.3,2.3,0,0,0-.434.91A8.478,8.478,0,0,1,203.8,21.6q-.453,1.063-.813,2.164c-.241.736-.5,1.467-.775,2.2-.1.254-.188.5-.264.739s-.151.5-.227.777a.925.925,0,0,0,.038.683.791.791,0,0,0,.623.3c.292.026.586.038.889.038H206.9a3.058,3.058,0,0,0,.718-.076Z" fill="#fff"/>
      <path id="Trazado_139" data-name="Trazado 139" d="M229.048,11.882h3.859c.329,0,.65.008.964.019a1.555,1.555,0,0,1,.775.208.455.455,0,0,1,.171.247,3.7,3.7,0,0,1,.094.36V12.9a1.4,1.4,0,0,1,.037.342v1.86c0,.179.008.349.02.512a1.259,1.259,0,0,1-.057.474.817.817,0,0,1-.756.682c-.378.027-.832.038-1.361.038h-3.86a12.769,12.769,0,0,0-1.3.057.849.849,0,0,0-.737.7.753.753,0,0,0,0,.341.541.541,0,0,1-.038.341,2.283,2.283,0,0,0-.019.512c.012.19.019.36.019.512V37.151a8.353,8.353,0,0,1-.056,1.043.759.759,0,0,1-.473.625,2.269,2.269,0,0,1-.605.076H222.5a7.181,7.181,0,0,1-.775-.038.789.789,0,0,1-.548-.265,1.468,1.468,0,0,1-.189-.777V19.277c0-.178.008-.36.019-.55a1.4,1.4,0,0,0-.056-.512.726.726,0,0,1,0-.341.431.431,0,0,0-.038-.3.867.867,0,0,0-.775-.7c-.394-.038-.851-.057-1.38-.057h-3.519c-.28,0-.586.008-.927.019a3.135,3.135,0,0,1-.812-.057.881.881,0,0,1-.454-.341,1.061,1.061,0,0,1-.132-.493c-.012-.2-.019-.4-.019-.606V13.474a5.922,5.922,0,0,1,.057-.872.766.766,0,0,1,.359-.568,1.433,1.433,0,0,1,.415-.152h15.318Z" fill="#fff"/>
      <path id="Trazado_140" data-name="Trazado 140" d="M77.175,5.765A16.783,16.783,0,1,0,93.914,22.548,16.761,16.761,0,0,0,77.175,5.765m0,27.593a10.81,10.81,0,1,1,10.781-10.81,10.8,10.8,0,0,1-10.781,10.81" fill="#fff"/>
      <path id="Trazado_141" data-name="Trazado 141" d="M28.9,5.292c-2.505-.13-12.922-.088-13.847,11.214.039,8.434,6.712,11.336,11.238,11.344a1.976,1.976,0,0,0,1.755,1.508l5.813-.039a.8.8,0,0,0-.013-1.565l-4.18.027a.718.718,0,0,1-.009-1.382l4.035-.027a.773.773,0,0,0,.774-.785s-.029-.786-.754-.783l-4.065.028a.746.746,0,0,1-.528-.69.7.7,0,0,1,.518-.692l4.177-.028a.78.78,0,0,0,.631-.792.772.772,0,0,0-.633-.773l-5.767.038c-.79,0-1.4.479-1.788,1.545-.725.029-6.4.035-6.512-6.845.9-7.724,9.268-6.442,9.268-6.442s10.433.727,11.6,11.868a2.806,2.806,0,0,1,.013.43c-.757,17.781-18.044,17.837-18.044,17.837C4.607,39.508,4.789,22.235,4.789,22.235A18.142,18.142,0,0,1,18.57,4.588c.045.008,3.786-1.47,4.893-1.916l.259-.076a.3.3,0,0,0,.247-.277.305.305,0,0,0-.2-.35C22.17,1.349,18.914.125,18.5.006a.155.155,0,0,0-.074,0C6.161,1.977-.046,13.484,0,22.163.025,35.975,9.92,44.727,22.591,44.756c0,0,22.646,0,22.622-22.548C44.786,12.632,37.165,5.324,28.9,5.294ZM21.253,2.91c-.78.311-2.534,1.023-2.534,1.023V.649s1.729.671,2.5.972q.016.645.036,1.289Z" fill="#fff"/>
    </g>
  </g>
</svg>
