<svg xmlns="http://www.w3.org/2000/svg" xmlns:xlink="http://www.w3.org/1999/xlink" width="334.899" height="63.79" viewBox="0 0 334.899 63.79">
  <defs>
    <clipPath id="clip-path">
      <rect id="Rectángulo_1" data-name="Rectángulo 1" width="334.899" height="63.79" fill="none"/>
    </clipPath>
  </defs>
  <g id="Grupo_2" data-name="Grupo 2" transform="translate(683 -19)">
    <g id="Grupo_1" data-name="Grupo 1" transform="translate(-683 19)" clip-path="url(#clip-path)">
      <path id="Trazado_1" data-name="Trazado 1" d="M190.519,34.186a4.745,4.745,0,0,1,1.051.108,1.186,1.186,0,0,1,.727.486,2.566,2.566,0,0,1,.323,1.486v1.864c0,.4.01.848.027,1.35a2.488,2.488,0,0,1-.189,1.188.978.978,0,0,1-.62.487,3.651,3.651,0,0,1-.915.108c-.34,0-.7-.017-1.077-.054a3.359,3.359,0,0,0-1.051.054,3.8,3.8,0,0,1-.754.135,2.818,2.818,0,0,0-.7.134,8.041,8.041,0,0,0-1.724.783,4.609,4.609,0,0,0-1.347,1.162q-.267.438-.565.891c-.2.308-.388.621-.565.945-.108.292-.205.589-.3.892s-.172.6-.242.891a2.929,2.929,0,0,0-.108.783,2.9,2.9,0,0,1-.108.783,1.066,1.066,0,0,0-.028.405.759.759,0,0,1-.027.352v.864a2.136,2.136,0,0,0-.054.837,7.322,7.322,0,0,1,.054.892v8.06c0,.47-.016.9-.054,1.3a1.965,1.965,0,0,1-.323.973.647.647,0,0,1-.351.243,4.763,4.763,0,0,1-.512.134h-.269a2.883,2.883,0,0,1-.593.054h-2.915a3.916,3.916,0,0,0-.673-.054h-.727c-.178-.07-.361-.134-.539-.189a.572.572,0,0,1-.377-.352,1.331,1.331,0,0,1-.242-.783c-.016-.34-.027-.691-.027-1.053V36.352a1.473,1.473,0,0,1,.216-.837,1.171,1.171,0,0,1,.808-.54,6.8,6.8,0,0,1,1.293-.109H179.8a7.009,7.009,0,0,1,1.132.081,1.065,1.065,0,0,1,.754.514,1.638,1.638,0,0,1,.189.757c.016.324.043.643.081.945a3.729,3.729,0,0,0,.188.837.506.506,0,0,0,.512.378.318.318,0,0,1,.216-.108.316.316,0,0,0,.215-.109,3.062,3.062,0,0,0,.565-.621,2.526,2.526,0,0,1,.62-.621,2.347,2.347,0,0,0,.378-.351,2.342,2.342,0,0,1,.377-.351c.323-.216.658-.433,1-.649a11.114,11.114,0,0,1,1.051-.594,10.87,10.87,0,0,1,1.1-.378c.377-.108.765-.216,1.159-.324a1.956,1.956,0,0,1,.62-.028q.46.025.566-.081Z" transform="translate(-37.307 -7.295)" fill="#ff3553"/>
      <path id="Trazado_2" data-name="Trazado 2" d="M227.287,57.04v1.486a1.892,1.892,0,0,1-.323,1.162,1.307,1.307,0,0,1-.7.351,5.31,5.31,0,0,1-.97.081h-2.969c-.361,0-.694-.01-1-.027a1.225,1.225,0,0,1-.727-.243.97.97,0,0,1-.431-.7,3.908,3.908,0,0,0-.216-.864l-.189-.189-.188-.19a1.177,1.177,0,0,0-.862.271c-.179.178-.361.362-.54.54-.252.178-.484.334-.7.459s-.453.282-.7.459c-.145.071-.3.146-.458.216s-.334.146-.512.216q-.76.267-1.616.486a1.368,1.368,0,0,1-.484.108,1.682,1.682,0,0,0-.431.054,3.7,3.7,0,0,0-.459.027,3.529,3.529,0,0,1-.458.028h-.485a3,3,0,0,1-.97.081,3.069,3.069,0,0,1-.915-.135,1.952,1.952,0,0,0-.674-.081,1.567,1.567,0,0,1-.619-.081c-.432-.146-.857-.281-1.266-.405a9.584,9.584,0,0,1-1.213-.459,9.316,9.316,0,0,1-3.372-2.518,14.77,14.77,0,0,1-2.349-3.6,8.551,8.551,0,0,1-.431-1.162c-.108-.378-.232-.768-.378-1.162a1.609,1.609,0,0,1-.053-.405,1.326,1.326,0,0,0-.108-.459c-.07-.286-.135-.6-.189-.945s-.119-.691-.189-1.053a.864.864,0,0,1-.027-.378.85.85,0,0,0-.027-.378v-.514a2.48,2.48,0,0,0-.054-.513,3.068,3.068,0,0,1-.053-.621,2.346,2.346,0,0,1,.053-.567,2.487,2.487,0,0,0,.054-.514v-.513a1.661,1.661,0,0,0,.027-.514,1.106,1.106,0,0,1,.081-.513c.07-.395.134-.773.189-1.135a7.72,7.72,0,0,1,.242-1.08c.145-.433.269-.849.377-1.243a7.991,7.991,0,0,1,.432-1.188,16.2,16.2,0,0,1,1.885-3.085,1.18,1.18,0,0,1,.3-.3,1.18,1.18,0,0,0,.3-.3,6.424,6.424,0,0,1,.431-.486c.146-.146.307-.286.484-.433a1.176,1.176,0,0,0,.378-.3,1.176,1.176,0,0,1,.377-.3,12.587,12.587,0,0,1,3.131-1.512,5.947,5.947,0,0,1,.781-.162,8.474,8.474,0,0,0,.835-.163,4.347,4.347,0,0,1,.97-.134c.393-.017.792-.028,1.185-.028s.781.017,1.158.054a5.753,5.753,0,0,1,.943.162c.539.179,1.061.346,1.562.486a6.377,6.377,0,0,1,1.4.595c.253.179.485.351.7.513s.448.335.7.514c.145.108.35.254.619.433a.64.64,0,0,0,.782,0,.386.386,0,0,0,.215-.378,1.483,1.483,0,0,1,.108-.54v-.54a1.142,1.142,0,0,0,.053-.378v-7.79c0-.394-.01-.837-.027-1.323a1.807,1.807,0,0,1,.242-1.107,1.047,1.047,0,0,1,.808-.54.306.306,0,0,1,.215-.028.3.3,0,0,0,.216-.027h3.831a11.456,11.456,0,0,1,1.185.054,1.059,1.059,0,0,1,.808.432,2.094,2.094,0,0,1,.27,1.107V57.056Zm-7.78-10.6a1.308,1.308,0,0,0,.027-.459,4.527,4.527,0,0,1-.027-.459,10.351,10.351,0,0,0-.054-1.08,7.308,7.308,0,0,0-.161-.973c-.071-.394-.135-.756-.189-1.081a3.345,3.345,0,0,0-.3-.918,7.154,7.154,0,0,0-2.187-3.085,6.513,6.513,0,0,0-4.127-1.135,4.773,4.773,0,0,0-.862.109c-.291.07-.55.134-.781.189a3.071,3.071,0,0,0-.674.243,4.852,4.852,0,0,0-2.268,1.837,11.219,11.219,0,0,0-1.293,2.814,6,6,0,0,0-.216,1.081,7.079,7.079,0,0,1-.215,1.134v.757a4.939,4.939,0,0,0-.053,1.324,6.621,6.621,0,0,0,.161,1.215,1.683,1.683,0,0,0,.027.3,1.425,1.425,0,0,1,.028.243c.07.292.134.562.188.811s.119.524.189.81a7.312,7.312,0,0,0,3.13,4.164,5.436,5.436,0,0,0,1.94.757,2.783,2.783,0,0,0,.646.054,2.158,2.158,0,0,0,.511.081,1.823,1.823,0,0,0,.566-.028,8.3,8.3,0,0,1,.862-.162,3.887,3.887,0,0,0,.862-.215,6.07,6.07,0,0,0,2.155-1.513,8.382,8.382,0,0,0,1.4-2.328,4.8,4.8,0,0,0,.323-1c.07-.34.146-.713.215-1.107a1.681,1.681,0,0,0,.028-.513,1.1,1.1,0,0,1,.08-.514,1.14,1.14,0,0,0,.054-.378v-.972Z" transform="translate(-42.487 -4.618)" fill="#ff3553"/>
      <path id="Trazado_3" data-name="Trazado 3" d="M266.892,48.563a2.275,2.275,0,0,1,0,.973,1,1,0,0,1-.377.7,1.633,1.633,0,0,1-.782.3,9.833,9.833,0,0,1-1.131.109c-.415.016-.83.016-1.24,0s-.781-.028-1.1-.028h-13.89a1.7,1.7,0,0,0-.62.109,1.17,1.17,0,0,0-.539.432,1.182,1.182,0,0,0-.215.405,1.049,1.049,0,0,0-.053.568,2.816,2.816,0,0,1,.134.621,2.724,2.724,0,0,0,.134.621,7.609,7.609,0,0,0,1.051,2.139,5.76,5.76,0,0,0,1.7,1.485,2.49,2.49,0,0,0,.889.352,6.611,6.611,0,0,1,.943.243,7.679,7.679,0,0,0,1.185.162,4.863,4.863,0,0,0,1.293-.054h.485a10.229,10.229,0,0,0,1-.243c.308-.092.6-.189.89-.3a12.914,12.914,0,0,0,1.212-.7,3.805,3.805,0,0,0,1-.864q.267-.381.566-.73a1.77,1.77,0,0,1,.727-.513,2.9,2.9,0,0,1,1.374-.243c.555.016,1.067.027,1.536.027.215,0,.441-.011.673-.027a1.405,1.405,0,0,1,.62.081h.539a1.937,1.937,0,0,1,.754.27.524.524,0,0,1,.242.486,1.5,1.5,0,0,1-.081.649,9.086,9.086,0,0,1-.592,1.35,10.723,10.723,0,0,1-.754,1.188,10.949,10.949,0,0,1-2.7,2.868,14.063,14.063,0,0,1-3.777,1.836,4.72,4.72,0,0,1-1.185.271,8.219,8.219,0,0,0-1.239.216,1.285,1.285,0,0,1-.459.027,1.282,1.282,0,0,0-.458.027h-.592a1.407,1.407,0,0,1-.62.081,4.5,4.5,0,0,1-.62-.081,2.512,2.512,0,0,0-.754,0,1.585,1.585,0,0,1-.7-.053,1.594,1.594,0,0,0-.592-.109,1.614,1.614,0,0,1-.593-.108c-.4-.07-.792-.151-1.185-.243a4.153,4.153,0,0,1-1.077-.405l-1.1-.406a4.949,4.949,0,0,1-.943-.459,15.369,15.369,0,0,1-3.077-2.518,12.2,12.2,0,0,1-2.214-3.328,7.8,7.8,0,0,1-.432-1.216,9.715,9.715,0,0,0-.431-1.269,1.609,1.609,0,0,1-.053-.405,1.612,1.612,0,0,0-.054-.405,5.749,5.749,0,0,1-.269-1.4c-.038-.5-.07-1.011-.108-1.512,0-.179-.011-.378-.027-.595a2.111,2.111,0,0,1,.027-.594V47.7l.161-1.3c.145-.61.27-1.21.378-1.783a7.639,7.639,0,0,1,.484-1.62,14.129,14.129,0,0,1,7.877-7.952,6.949,6.949,0,0,1,1.535-.459c.523-.092,1.067-.205,1.644-.351a6.153,6.153,0,0,1,.808-.054,6.165,6.165,0,0,0,.809-.054,13.764,13.764,0,0,1,4.72.621,14.587,14.587,0,0,1,3.534,1.756,11.151,11.151,0,0,1,.97.729,7.942,7.942,0,0,1,.862.837,1.274,1.274,0,0,0,.431.433q.428.6.809,1.215c.253.416.522.838.808,1.269a7.363,7.363,0,0,1,.459,1c.123.346.259.713.4,1.107a10.126,10.126,0,0,1,.432,1.459c.108.507.231,1.01.377,1.512a3.367,3.367,0,0,1,.081.945,3.3,3.3,0,0,0,.081.945v.595ZM258.8,45.371a1.35,1.35,0,0,0,.08-1.324c-.2-.524-.35-.913-.458-1.162a5.66,5.66,0,0,0-1.994-2.241,6.723,6.723,0,0,0-3.453-.838.451.451,0,0,1-.377.054.64.64,0,0,0-.378,0,2.041,2.041,0,0,1-.592.135,2.021,2.021,0,0,0-.593.134,5.76,5.76,0,0,0-3.508,2.977c-.07.145-.156.335-.242.567a3.435,3.435,0,0,0-.189.7,1.677,1.677,0,0,0,.027.676.986.986,0,0,0,.351.54,2.245,2.245,0,0,0,1.185.27h7.446c.5,0,1.035-.011,1.589-.027a1.26,1.26,0,0,0,1.105-.459Z" transform="translate(-51.069 -7.286)" fill="#ff3553"/>
      <path id="Trazado_4" data-name="Trazado 4" d="M294.051,34.186a4.741,4.741,0,0,1,1.051.108,1.182,1.182,0,0,1,.727.486,2.567,2.567,0,0,1,.323,1.486v1.864c0,.4.011.848.027,1.35a2.479,2.479,0,0,1-.189,1.188.979.979,0,0,1-.619.487,3.657,3.657,0,0,1-.916.108c-.34,0-.7-.017-1.077-.054a3.359,3.359,0,0,0-1.051.054,3.8,3.8,0,0,1-.754.135,2.819,2.819,0,0,0-.7.134,8.044,8.044,0,0,0-1.724.783,4.6,4.6,0,0,0-1.346,1.162q-.267.438-.566.891c-.2.308-.388.621-.565.945-.108.292-.2.589-.3.892s-.172.6-.242.891a2.927,2.927,0,0,0-.108.783,2.9,2.9,0,0,1-.108.783,1.048,1.048,0,0,0-.027.405.769.769,0,0,1-.028.352v.864a2.137,2.137,0,0,0-.053.837,7.321,7.321,0,0,1,.053.892v8.06c0,.47-.016.9-.053,1.3a1.965,1.965,0,0,1-.323.973.645.645,0,0,1-.35.243,4.867,4.867,0,0,1-.512.134h-.27a2.875,2.875,0,0,1-.592.054h-2.915a3.919,3.919,0,0,0-.674-.054h-.728c-.178-.07-.361-.134-.539-.189a.569.569,0,0,1-.377-.352,1.32,1.32,0,0,1-.242-.783c-.017-.34-.028-.691-.028-1.053V36.352a1.473,1.473,0,0,1,.216-.837,1.171,1.171,0,0,1,.809-.54,6.8,6.8,0,0,1,1.293-.109h2.754a7,7,0,0,1,1.131.081,1.065,1.065,0,0,1,.754.514,1.628,1.628,0,0,1,.189.757c.017.324.043.643.081.945a3.725,3.725,0,0,0,.189.837.5.5,0,0,0,.511.378.32.32,0,0,1,.216-.108.318.318,0,0,0,.216-.109,3.086,3.086,0,0,0,.565-.621,2.513,2.513,0,0,1,.62-.621,2.343,2.343,0,0,0,.377-.351,2.347,2.347,0,0,1,.378-.351c.323-.216.657-.433,1-.649a11.216,11.216,0,0,1,1.051-.594,10.933,10.933,0,0,1,1.1-.378c.378-.108.765-.216,1.159-.324a1.955,1.955,0,0,1,.62-.028q.46.025.566-.081Z" transform="translate(-59.413 -7.295)" fill="#ff3553"/>
      <path id="Trazado_5" data-name="Trazado 5" d="M308.782,21.526h24.87c.431,0,.845.017,1.239.054a1.118,1.118,0,0,1,.862.432.866.866,0,0,1,.135.378,1.28,1.28,0,0,0,.134.432v.595a3.967,3.967,0,0,1,.027.81c-.016.292-.027.562-.027.811,0,.292.011.567.027.837a3.733,3.733,0,0,1-.027.783,4.333,4.333,0,0,0-.054.811,1.3,1.3,0,0,1-.539.864,1.411,1.411,0,0,1-.808.215h-14.51c-.291,0-.62-.01-1-.027s-.754-.017-1.132,0a8.8,8.8,0,0,0-1.051.108,1.635,1.635,0,0,0-.7.243,1.128,1.128,0,0,0-.458.783,7.512,7.512,0,0,0-.081,1.162v4.651a6.916,6.916,0,0,0,.215.729.854.854,0,0,0,.377.459,1.463,1.463,0,0,0,.754.243c.286.017.593.028.916.028H330.15c.253,0,.565-.011.943-.028s.743-.016,1.1,0,.69.043,1,.081a1.432,1.432,0,0,1,.674.216.953.953,0,0,1,.377.648,6.214,6.214,0,0,1,.134,1.054c.017.378.017.767,0,1.161s-.027.741-.027,1.027v.756a1.77,1.77,0,0,1-.108.648,1.266,1.266,0,0,1-.431.7,1.861,1.861,0,0,1-.727.216,8.44,8.44,0,0,1-1.023.054c-.378,0-.754-.011-1.132-.028s-.7-.027-.943-.027H319.466c-.431,0-.845-.011-1.239-.027a5.612,5.612,0,0,0-1.105.053,2.034,2.034,0,0,0-.862.325,1.4,1.4,0,0,0-.512.729,2.738,2.738,0,0,0-.053.567v5.651a7.444,7.444,0,0,0,.081,1.161,1.113,1.113,0,0,0,.458.783.645.645,0,0,0,.4.19,1.908,1.908,0,0,1,.511.135h.54a2.1,2.1,0,0,0,.592.027c.216-.017.415-.027.593-.027h16.1a1.6,1.6,0,0,1,.727.162.978.978,0,0,1,.592.594,2.2,2.2,0,0,1,.135.648c.016.254.027.525.027.811v2.49c0,.433-.017.838-.054,1.216a1.049,1.049,0,0,1-.484.837,1.272,1.272,0,0,1-.835.271H309.7a9.465,9.465,0,0,1-1.32-.081,1.116,1.116,0,0,1-.835-.514,1.476,1.476,0,0,1-.215-.838V22.849a1.171,1.171,0,0,1,.215-.757,1.255,1.255,0,0,1,.808-.54.3.3,0,0,1,.215-.027.3.3,0,0,0,.215-.027Z" transform="translate(-65.621 -4.59)" fill="#ff3553"/>
      <path id="Trazado_6" data-name="Trazado 6" d="M384.222,57.5a3.869,3.869,0,0,0,.189.54,4.165,4.165,0,0,1,.215.675,1.7,1.7,0,0,1,.027.676.648.648,0,0,1-.377.486,2.553,2.553,0,0,1-1.427.216c-.669-.038-1.212-.054-1.643-.054h-2.538c-.291,0-.55.011-.781.027a1.75,1.75,0,0,1-.674-.081,1.324,1.324,0,0,1-.862-.648,3.409,3.409,0,0,1-.4-.919,6.978,6.978,0,0,0-.35-.972c-.178-.578-.372-1.156-.565-1.729s-.4-1.134-.62-1.674c-.108-.324-.2-.621-.3-.891a5.788,5.788,0,0,0-.3-.73,1.61,1.61,0,0,0-.484-.567,2.106,2.106,0,0,0-.862-.351,5.055,5.055,0,0,1-.512-.028c-.162-.016-.334-.027-.512-.027h-8.523c-.614,0-1.266-.011-1.967-.027a2.642,2.642,0,0,0-1.643.405,1.63,1.63,0,0,0-.593.864c-.108.362-.231.724-.377,1.08a12.956,12.956,0,0,0-.728,1.918c-.2.67-.42,1.324-.673,1.972q-.218.543-.4,1.134a1.772,1.772,0,0,1-.62.919,1.641,1.641,0,0,1-.781.3,7.405,7.405,0,0,1-1.132.081c-.41,0-.835-.011-1.266-.028s-.808-.027-1.132-.027c-.469,0-1.034.011-1.7.027a2.691,2.691,0,0,1-1.428-.243.593.593,0,0,1-.3-.486,2.241,2.241,0,0,1,.054-.675c.053-.233.119-.459.189-.676a4.332,4.332,0,0,1,.216-.54c.361-.827.69-1.674,1-2.544s.62-1.712.943-2.544a4.025,4.025,0,0,0,.323-.864,4.029,4.029,0,0,1,.323-.864c.285-.757.577-1.534.862-2.329s.577-1.566.862-2.328q.428-1.078.808-2.139c.253-.7.522-1.416.808-2.134q1.236-2.974,2.29-6t2.295-6a4.285,4.285,0,0,0,.162-.487,4.311,4.311,0,0,1,.161-.486c.285-.756.576-1.534.862-2.328s.593-1.567.916-2.328a9.995,9.995,0,0,0,.458-1.216,1.942,1.942,0,0,1,.673-1,2.537,2.537,0,0,1,.7-.27.3.3,0,0,1,.216-.027.306.306,0,0,0,.216-.028h4.746c.393,0,.8-.011,1.213-.027a1.787,1.787,0,0,1,1.777,1.188c.124.416.281.838.458,1.269.253.616.484,1.216.7,1.81s.447,1.2.7,1.81c.07.216.145.433.215.648s.145.433.215.649c.285.724.555,1.431.808,2.139s.523,1.415.808,2.139c.716,1.8,1.4,3.625,2.02,5.461s1.32,3.663,2.079,5.461a1.389,1.389,0,0,1,.135.405,1.31,1.31,0,0,0,.134.405c.216.578.431,1.156.647,1.729s.431,1.155.646,1.728a4.3,4.3,0,0,1,.323.838,8.371,8.371,0,0,0,.27.838c.469,1.156.9,2.307,1.293,3.463s.824,2.29,1.293,3.409a.558.558,0,0,1,.108.3.558.558,0,0,0,.108.3ZM370.251,45.111a.854.854,0,0,0,.646-.919,3.824,3.824,0,0,0-.323-1.243.949.949,0,0,1-.108-.405.952.952,0,0,0-.108-.405q-.7-1.839-1.293-3.733c-.4-1.264-.845-2.523-1.346-3.787a5.941,5.941,0,0,1-.216-.676,4.457,4.457,0,0,0-.27-.756,2.935,2.935,0,0,0-.377-.621.671.671,0,0,0-.54-.271.9.9,0,0,1-.215.162.946.946,0,0,0-.215.163,3.283,3.283,0,0,0-.619,1.3,12.2,12.2,0,0,1-.459,1.459q-.646,1.515-1.158,3.085c-.344,1.048-.711,2.09-1.1,3.138-.146.362-.269.713-.377,1.054s-.216.713-.323,1.107a1.31,1.31,0,0,0,.053.972,1.126,1.126,0,0,0,.889.433c.415.038.835.053,1.266.053h5.178a4.354,4.354,0,0,0,1.023-.108Z" transform="translate(-74.343 -4.59)" fill="#ff3553"/>
      <path id="Trazado_7" data-name="Trazado 7" d="M408.836,21.533h5.5c.469,0,.926.011,1.374.027a2.229,2.229,0,0,1,1.1.3.646.646,0,0,1,.243.352,4.891,4.891,0,0,1,.134.513v.271a1.941,1.941,0,0,1,.054.486V26.13c0,.254.011.5.027.73a1.785,1.785,0,0,1-.081.675,1.163,1.163,0,0,1-1.077.972c-.539.039-1.185.054-1.939.054h-5.5a18.384,18.384,0,0,0-1.858.081,1.21,1.21,0,0,0-1.051,1,1.054,1.054,0,0,0,0,.486.78.78,0,0,1-.054.486,3.252,3.252,0,0,0-.027.73c.017.27.027.513.027.729V57.549a11.732,11.732,0,0,1-.08,1.485,1.084,1.084,0,0,1-.674.892,3.225,3.225,0,0,1-.862.108h-4.585a9.846,9.846,0,0,1-1.1-.054,1.118,1.118,0,0,1-.781-.378,2.08,2.08,0,0,1-.27-1.107V32.073c0-.254.011-.514.027-.783a1.977,1.977,0,0,0-.081-.729,1.057,1.057,0,0,1,0-.487.61.61,0,0,0-.054-.432,1.234,1.234,0,0,0-1.1-1c-.561-.053-1.212-.081-1.967-.081H389.16c-.4,0-.835.011-1.32.028a4.432,4.432,0,0,1-1.158-.082,1.259,1.259,0,0,1-.647-.486,1.518,1.518,0,0,1-.188-.7c-.017-.286-.028-.578-.028-.864V23.8a8.529,8.529,0,0,1,.081-1.243,1.1,1.1,0,0,1,.512-.81,2.1,2.1,0,0,1,.592-.216h21.832Z" transform="translate(-82.379 -4.598)" fill="#ff3553"/>
      <path id="Trazado_8" data-name="Trazado 8" d="M133.381,10.447a23.921,23.921,0,1,0,23.857,23.92,23.889,23.889,0,0,0-23.857-23.92m0,39.327a15.407,15.407,0,1,1,15.366-15.407,15.387,15.387,0,0,1-15.366,15.407" transform="translate(-23.385 -2.231)" fill="#ff3553"/>
      <path id="Trazado_9" data-name="Trazado 9" d="M41.189,7.543c-3.57-.186-18.418-.126-19.736,15.983.056,12.021,9.566,16.157,16.017,16.169a2.818,2.818,0,0,0,2.5,2.149l8.285-.055a1.141,1.141,0,0,0-.018-2.231l-5.958.039a1.023,1.023,0,0,1-.013-1.97l5.751-.039a1.1,1.1,0,0,0,1.1-1.118s-.041-1.121-1.074-1.116l-5.794.039a1.063,1.063,0,0,1-.753-.982,1,1,0,0,1,.739-.988l5.952-.039a1.116,1.116,0,0,0,.9-1.129,1.1,1.1,0,0,0-.9-1.1l-8.22.055c-1.125-.007-1.993.682-2.548,2.2-1.033.042-9.114.05-9.281-9.757,1.288-11.008,13.209-9.181,13.209-9.181s14.872,1.036,16.529,16.915A4.2,4.2,0,0,1,57.9,32C56.817,57.342,32.178,57.422,32.178,57.422,6.566,56.311,6.825,31.692,6.825,31.692,7.535,11.122,25.262,6.811,26.467,6.54c.064.011,5.4-2.1,6.975-2.732l.37-.108a.429.429,0,0,0,.351-.395.434.434,0,0,0-.291-.5c-2.273-.883-6.912-2.628-7.5-2.8a.243.243,0,0,0-.106,0C8.781,2.819-.066,19.219,0,31.588.035,51.274,14.14,63.749,32.2,63.79c0,0,32.276,0,32.242-32.137C63.833,18.005,52.97,7.59,41.189,7.546Zm-10.9-3.4c-1.111.443-3.611,1.458-3.611,1.458V.925s2.463.957,3.563,1.387q.024.919.05,1.836Z" transform="translate(0 0)" fill="#ff3553"/>
    </g>
  </g>
</svg>
